<svg width="30" height="30" viewBox="0 0 30 30" fill="none" xmlns="http://www.w3.org/2000/svg">
  <path d="M15 3C11.134 3 8 6.134 8 10C8 11.5 8.5 12.9 9.4 14L9 15C8.5 16.5 9 18 10.5 18.5L11 19C11.5 20.5 13 21.5 14.5 21L15 21.5C16.5 22 18 21 18.5 19.5L19 19C20.5 18.5 21 17 20.5 15.5L20.1 14C21 12.9 21.5 11.5 21.5 10C21.5 6.134 18.366 3 14.5 3H15Z" stroke="white" stroke-width="2" fill="none"/>
  <circle cx="12" cy="9" r="1.5" fill="white"/>
  <circle cx="18" cy="9" r="1.5" fill="white"/>
  <path d="M10 13C10 13 12.5 15 15 15C17.5 15 20 13 20 13" stroke="white" stroke-width="1.5" stroke-linecap="round"/>
  <path d="M8 12L6 10M22 12L24 10M15 3V1M15 27V25" stroke="white" stroke-width="1.5" stroke-linecap="round"/>
  <circle cx="15" cy="15" r="2" fill="white" opacity="0.7"/>
</svg>
