<svg width="30" height="30" viewBox="0 0 30 30" fill="none" xmlns="http://www.w3.org/2000/svg">
  <circle cx="15" cy="15" r="12" stroke="white" stroke-width="2" fill="none"/>
  <path d="M9 12C9 8.5 11.5 6 15 6C18.5 6 21 8.5 21 12C21 15.5 18.5 18 15 18H12V21L9 18H7C5.5 18 4 16.5 4 15V12C4 10.5 5.5 9 7 9H9V12Z" stroke="white" stroke-width="1.5" fill="none"/>
  <circle cx="12" cy="12" r="1" fill="white"/>
  <circle cx="15" cy="12" r="1" fill="white"/>
  <circle cx="18" cy="12" r="1" fill="white"/>
  <path d="M15 3V1M15 29V27M27 15H29M1 15H3" stroke="white" stroke-width="1" stroke-linecap="round" opacity="0.5"/>
  <text x="22" y="8" font-family="sans-serif" font-size="6" fill="white">24</text>
  <text x="22" y="24" font-family="sans-serif" font-size="6" fill="white">7</text>
</svg>
